<svg xmlns="http://www.w3.org/2000/svg" xmlns:xlink="http://www.w3.org/1999/xlink" viewBox="0 0 623.47 656.5"><defs><style>.cls-1{fill:#fff;}.cls-2{fill:none;}.cls-3{fill:#303030;}.cls-4{mask:url(#mask);}.cls-5{fill:url(#linear-gradient);}.cls-6{fill:url(#linear-gradient-2);}.cls-7{fill:url(#linear-gradient-3);}.cls-8{clip-path:url(#clip-path);}.cls-9{mask:url(#mask-2);}.cls-10{fill:url(#linear-gradient-4);}.cls-11,.cls-24{fill-opacity:0.24;}.cls-12,.cls-23{fill-opacity:0.32;}.cls-13{fill:url(#linear-gradient-5);}.cls-14{fill:url(#linear-gradient-6);}.cls-15{clip-path:url(#clip-path-3);}.cls-16{mask:url(#mask-3);}.cls-17{fill:url(#linear-gradient-7);}.cls-18{fill:url(#linear-gradient-8);}.cls-19{fill:url(#linear-gradient-9);}.cls-20{clip-path:url(#clip-path-6);}.cls-21{mask:url(#mask-4);}.cls-22,.cls-23,.cls-24,.cls-25{fill-rule:evenodd;}.cls-22{fill:url(#linear-gradient-10);}.cls-25{fill:url(#linear-gradient-11);}.cls-26{fill:#4ccbed;}.cls-27{fill:#17aad2;}.cls-28{clip-path:url(#clip-path-8);}.cls-29{mask:url(#mask-5);}.cls-30{fill:url(#linear-gradient-12);}.cls-31{fill:url(#linear-gradient-13);}.cls-32{fill:url(#linear-gradient-14);}.cls-33{fill:url(#linear-gradient-15);}.cls-34{fill:#ebba24;}.cls-35{fill:#2f80f0;}.cls-36{fill:#9d2f8f;}.cls-37{fill:#157a96;}.cls-38{fill:#685cd0;}</style><mask id="mask" x="277.52" y="135.95" width="66.83" height="89.11" maskUnits="userSpaceOnUse"><g id="mask0"><path class="cls-1" d="M314.65,139.66a3.72,3.72,0,0,1,3.72-3.71h22.27a3.71,3.71,0,0,1,3.72,3.71v81.69a3.71,3.71,0,0,1-3.72,3.71h-59.4a3.72,3.72,0,0,1-3.72-3.71V184.22a3.73,3.73,0,0,1,3.72-3.72h14.85V161.94a3.71,3.71,0,0,1,3.71-3.71h14.85Z"/></g></mask><linearGradient id="linear-gradient" x1="308.71" y1="522.09" x2="347.88" y2="439.06" gradientTransform="matrix(1, 0, 0, -1, 0, 658.5)" gradientUnits="userSpaceOnUse"><stop offset="0" stop-color="#e6ad10"/><stop offset="1" stop-color="#c87e0e"/></linearGradient><linearGradient id="linear-gradient-2" x1="293.64" y1="499.01" x2="326.58" y2="435.13" gradientTransform="matrix(1, 0, 0, -1, 0, 658.5)" gradientUnits="userSpaceOnUse"><stop offset="0" stop-color="#f6d751"/><stop offset="1" stop-color="#e6ad10"/></linearGradient><linearGradient id="linear-gradient-3" x1="281.62" y1="479.73" x2="299.83" y2="436.59" gradientTransform="matrix(1, 0, 0, -1, 0, 658.5)" gradientUnits="userSpaceOnUse"><stop offset="0" stop-color="#f9e589"/><stop offset="1" stop-color="#f6d751"/></linearGradient><clipPath id="clip-path"><rect class="cls-2" x="134.03" y="230.47" width="89.1" height="89.1"/></clipPath><mask id="mask-2" x="129.38" y="239.75" width="94.67" height="72.39" maskUnits="userSpaceOnUse"><g id="mask0-2" data-name="mask0"><path class="cls-1" d="M190.84,239.75A3.69,3.69,0,0,1,193.6,241l28.24,31.56a3.71,3.71,0,0,1,0,4.95L193.6,309.06a3.72,3.72,0,0,1-2.76,1.23H137.69a3.71,3.71,0,0,1-2.77-6.19l26-29.08-26-29.08a3.71,3.71,0,0,1,2.77-6.19Z"/></g></mask><linearGradient id="linear-gradient-4" x1="173.94" y1="376.98" x2="160.94" y2="418.75" gradientTransform="matrix(1, 0, 0, -1, 0, 658.5)" gradientUnits="userSpaceOnUse"><stop offset="0" stop-color="#0d36a5"/><stop offset="1" stop-color="#1152d4"/></linearGradient><linearGradient id="linear-gradient-5" x1="176.72" y1="418.75" x2="176.72" y2="348.21" gradientTransform="matrix(1, 0, 0, -1, 0, 658.5)" gradientUnits="userSpaceOnUse"><stop offset="0" stop-color="#84caff"/><stop offset="1" stop-color="#61b1fb"/></linearGradient><linearGradient id="linear-gradient-6" x1="168.83" y1="418.75" x2="168.83" y2="348.21" gradientTransform="matrix(1, 0, 0, -1, 0, 658.5)" gradientUnits="userSpaceOnUse"><stop offset="0" stop-color="#3b90f5"/><stop offset="1" stop-color="#2a78ee"/></linearGradient><clipPath id="clip-path-3"><rect class="cls-2" x="397.19" y="232.63" width="89.1" height="89.1"/></clipPath><mask id="mask-3" x="395.33" y="232.63" width="92.81" height="90.96" maskUnits="userSpaceOnUse"><g id="mask0-3" data-name="mask0"><path class="cls-1" d="M398.54,273.51a5.57,5.57,0,0,0,0,7.34l33,37.69a3.72,3.72,0,0,0,5.59,0l3.55-4.06,3.91,4.27a3.72,3.72,0,0,0,5.47,0l34.65-37.81a5.54,5.54,0,0,0,0-7.52L450,235.62a3.7,3.7,0,0,0-5.47,0l-3.91,4.26-3.55-4.06a3.72,3.72,0,0,0-5.59,0Z"/></g></mask><linearGradient id="linear-gradient-7" x1="454.04" y1="333.07" x2="402.06" y2="460.23" gradientTransform="matrix(1, 0, 0, -1, 0, 658.5)" gradientUnits="userSpaceOnUse"><stop offset="0" stop-color="#742774"/><stop offset="1" stop-color="#bb35a4"/></linearGradient><linearGradient id="linear-gradient-8" x1="430.47" y1="427.59" x2="473.16" y2="338.49" gradientTransform="matrix(1, 0, 0, -1, 0, 658.5)" gradientUnits="userSpaceOnUse"><stop offset="0" stop-color="#e48cc7"/><stop offset="1" stop-color="#d467b9"/></linearGradient><linearGradient id="linear-gradient-9" x1="462.06" y1="401.34" x2="475.05" y2="361.43" gradientTransform="matrix(1, 0, 0, -1, 0, 658.5)" gradientUnits="userSpaceOnUse"><stop offset="0" stop-color="#e9a1cb"/><stop offset="1" stop-color="#e48cc7"/></linearGradient><clipPath id="clip-path-6"><rect class="cls-2" x="345.64" y="386.88" width="89.14" height="89.14"/></clipPath><mask id="mask-4" x="345.64" y="390.6" width="89.25" height="89.14" maskUnits="userSpaceOnUse"><g id="mask0-4" data-name="mask0"><path class="cls-1" d="M412.49,438.88a3.72,3.72,0,0,1,3.72-3.71h14.91a3.72,3.72,0,0,0,3.72-3.71l0-37.14a3.7,3.7,0,0,0-3.71-3.72H371.64a3.71,3.71,0,0,0-3.71,3.71v18.57H349.36a3.71,3.71,0,0,0-3.72,3.72v37.14a3.71,3.71,0,0,0,3.72,3.71h14.85a3.72,3.72,0,0,1,3.72,3.71V473a2.78,2.78,0,0,0,4.75,2l16.44-16.44a3.71,3.71,0,0,1,2.63-1.09h17a3.71,3.71,0,0,0,3.71-3.71Z"/></g></mask><linearGradient id="linear-gradient-10" x1="364.5" y1="250.09" x2="406.29" y2="169.31" gradientTransform="matrix(1, 0, 0, -1, 0, 658.5)" gradientUnits="userSpaceOnUse"><stop offset="0" stop-color="#117b97"/><stop offset="1" stop-color="#0a4a5c"/></linearGradient><linearGradient id="linear-gradient-11" x1="400.6" y1="249.02" x2="428.45" y2="183.09" gradientTransform="matrix(1, 0, 0, -1, 0, 658.5)" gradientUnits="userSpaceOnUse"><stop offset="0" stop-color="#1392b4"/><stop offset="1" stop-color="#117b97"/></linearGradient><clipPath id="clip-path-8"><rect class="cls-2" x="183" y="385.55" width="89.14" height="89.14"/></clipPath><mask id="mask-5" x="180.22" y="384.66" width="94.71" height="90.92" maskUnits="userSpaceOnUse"><g id="mask0-5" data-name="mask0"><path class="cls-1" d="M230.35,386.75a4.64,4.64,0,0,0-5.57,0l-39.61,29.71a4.64,4.64,0,0,0,0,7.43l19.67,14.75-8.31,6.23a4.64,4.64,0,0,0,0,7.43l28.25,21.19a4.64,4.64,0,0,0,5.57,0L270,443.78a4.65,4.65,0,0,0,0-7.43L250.3,421.6l8.31-6.23a4.65,4.65,0,0,0,0-7.43Z"/></g></mask><linearGradient id="linear-gradient-12" x1="216.05" y1="275.72" x2="239.9" y2="190.38" gradientTransform="matrix(1, 0, 0, -1, 0, 658.5)" gradientUnits="userSpaceOnUse"><stop offset="0" stop-color="#a391e8"/><stop offset="1" stop-color="#685cd0"/></linearGradient><linearGradient id="linear-gradient-13" x1="251.2" y1="186.49" x2="234.95" y2="233.38" gradientTransform="matrix(1, 0, 0, -1, 0, 658.5)" gradientUnits="userSpaceOnUse"><stop offset="0" stop-color="#38389f"/><stop offset="1" stop-color="#4b44c0"/></linearGradient><linearGradient id="linear-gradient-14" x1="208.4" y1="282.05" x2="231.49" y2="214.48" gradientTransform="matrix(1, 0, 0, -1, 0, 658.5)" gradientUnits="userSpaceOnUse"><stop offset="0" stop-color="#dbcef8"/><stop offset="1" stop-color="#c0aff1"/></linearGradient><linearGradient id="linear-gradient-15" x1="204.44" y1="276.26" x2="229.3" y2="187.47" gradientTransform="matrix(1, 0, 0, -1, 0, 658.5)" gradientUnits="userSpaceOnUse"><stop offset="0" stop-color="#c0aff1"/><stop offset="1" stop-color="#8675dd"/></linearGradient></defs><g id="Layer_2" data-name="Layer 2"><g id="Layer_1-2" data-name="Layer 1"><path class="cls-3" d="M505.27,557.35l-3.16-4c1.31-1,2.62-2.1,3.91-3.17l3.22,3.92C507.92,555.21,506.6,556.29,505.27,557.35Zm-393.18-1.88c-1.34-1.08-2.65-2.16-4-3.25l3.25-3.89c1.28,1.08,2.58,2.14,3.88,3.19ZM528.3,537.12l-3.52-3.64q1.8-1.74,3.59-3.53l3.58,3.58Q530.14,535.35,528.3,537.12ZM89.26,535q-1.82-1.82-3.58-3.64l3.62-3.53c1.18,1.2,2.35,2.4,3.54,3.59Zm460-20.24-3.85-3.29c1.08-1.28,2.16-2.56,3.22-3.86l3.92,3.22C551.46,512.13,550.37,513.45,549.26,514.75ZM68.72,512.2c-1.07-1.34-2.14-2.68-3.19-4l4-3.1c1,1.32,2.07,2.64,3.13,3.94ZM568,490.43l-4.16-2.89c1-1.38,1.9-2.77,2.84-4.16l4.2,2.81C569.88,487.61,568.92,489,568,490.43ZM50.68,487.37q-1.4-2.16-2.76-4.33l4.29-2.68c.89,1.41,1.8,2.83,2.71,4.24Zm533.49-23-4.42-2.46q1.23-2.21,2.42-4.43l4.46,2.39C585.82,461.4,585,462.9,584.17,464.39ZM35.28,460.82q-1.17-2.28-2.3-4.58L37.52,454q1.11,2.25,2.26,4.49Zm562.48-23.94-4.64-2q1-2.31,2-4.64l4.68,1.94C599.11,433.74,598.45,435.32,597.76,436.88Zm-575.13-4q-.94-2.38-1.84-4.79l4.74-1.77q.88,2.35,1.81,4.69Zm585.94-24.73-4.81-1.55q.76-2.4,1.5-4.83l4.85,1.48C609.61,404.88,609.1,406.52,608.57,408.15ZM12.76,403.84c-.47-1.64-.93-3.27-1.37-4.92l4.88-1.31c.44,1.61.89,3.23,1.35,4.84ZM616.5,378.51l-5-1.07c.35-1.63.69-3.28,1-4.92l5,1Q617,376,616.5,378.51ZM5.7,374c-.32-1.67-.61-3.35-.9-5l5-.86c.28,1.64.58,3.3.88,4.95Zm615.76-25.76-5-.56c.18-1.67.36-3.34.52-5l5,.48C621.82,344.86,621.65,346.55,621.46,348.25Zm-620-4.6c-.15-1.7-.3-3.4-.43-5.1l5.05-.38c.12,1.67.27,3.34.43,5Zm622-26-5.06-.08c0-1.67,0-3.35,0-5V311.5h5.06v1.05C623.47,314.26,623.45,316,623.43,317.66ZM0,313v-.44c0-1.56,0-3.12,0-4.67L5.1,308c0,1.52,0,3.06,0,4.59Zm617.31-26.64c-.15-1.67-.3-3.34-.46-5l5-.5c.17,1.69.32,3.38.47,5.08ZM6.41,282.86l-5-.45c.16-1.7.33-3.4.51-5.09l5,.54C6.72,279.53,6.56,281.19,6.41,282.86Zm606.9-26.37c-.3-1.65-.62-3.29-.95-4.94l5-1c.34,1.67.66,3.34,1,5ZM10.51,253l-5-.92c.3-1.67.62-3.35,1-5l5,1C11.14,249.66,10.82,251.31,10.51,253Zm595.87-25.83c-.45-1.6-.94-3.21-1.43-4.81l4.85-1.48q.75,2.44,1.45,4.9Zm-589-3.57-4.87-1.37q.69-2.46,1.44-4.91l4.84,1.46C18.31,220.35,17.84,222,17.38,223.56Zm579.23-24.95q-.93-2.33-1.9-4.64l4.67-1.95c.65,1.56,1.3,3.13,1.93,4.71ZM27,195l-4.72-1.84c.62-1.58,1.25-3.17,1.9-4.74l4.69,1.92C28.24,191.86,27.61,193.41,27,195Zm557.06-23.76q-1.16-2.22-2.35-4.43l4.46-2.4q1.22,2.24,2.38,4.5ZM39.36,167.47l-4.51-2.31q1.15-2.26,2.36-4.52L41.68,163C40.89,164.49,40.12,166,39.36,167.47Zm529.54-22.3q-1.38-2.1-2.77-4.19l4.19-2.83q1.44,2.11,2.82,4.26ZM54.39,141.34l-4.25-2.75q1.38-2.13,2.8-4.26l4.21,2.82Q55.74,139.23,54.39,141.34Zm496.86-20.62c-1-1.31-2.1-2.6-3.17-3.9l3.9-3.23c1.08,1.31,2.16,2.64,3.22,4ZM72,116.91l-4-3.17q1.6-2,3.25-4L75.19,113Q73.59,115,72,116.91ZM531.3,98.11q-1.77-1.81-3.54-3.58l3.57-3.59q1.8,1.8,3.59,3.63ZM92.1,94.45l-3.59-3.57q1.8-1.8,3.63-3.59l3.54,3.62C94.47,92.09,93.28,93.26,92.1,94.45ZM509.24,77.54l-3.89-3.22,3.21-3.91c1.32,1.07,2.63,2.17,3.93,3.26Zm-394.79-3.3-3.19-3.93q2-1.61,4-3.19l3.12,4C117.06,72.14,115.75,73.18,114.45,74.24Zm370.8-15q-2.07-1.44-4.17-2.83l2.8-4.21q2.13,1.41,4.24,2.87ZM138.81,56.5l-2.76-4.24q2.13-1.4,4.32-2.76l2.68,4.3Q140.91,55.14,138.81,56.5ZM459.6,43.32q-2.21-1.22-4.43-2.4l2.37-4.47q2.26,1.2,4.51,2.45ZM164.89,41.38l-2.32-4.5c1.51-.78,3-1.54,4.57-2.3l2.23,4.55C167.86,39.86,166.37,40.62,164.89,41.38ZM432.48,30c-1.54-.67-3.09-1.32-4.65-2l1.94-4.67q2.37,1,4.72,2ZM192.36,29l-1.86-4.71,4.76-1.84,1.79,4.74C195.48,27.74,193.91,28.35,192.36,29Zm211.85-9.5q-2.41-.77-4.84-1.5l1.46-4.84c1.64.49,3.27,1,4.91,1.51Zm-183.3-.23-1.41-4.86c1.63-.47,3.26-.94,4.91-1.39l1.34,4.88C224.13,18.31,222.51,18.76,220.91,19.23Zm29.33-7.13-1-5c1.65-.33,3.32-.64,5-1l.93,5ZM375,11.76c-1.64-.36-3.28-.69-4.93-1l1-5q2.52.5,5,1Zm-95-4.32-.58-5c1.68-.2,3.38-.38,5.08-.55l.51,5C283.4,7.06,281.74,7.25,280.07,7.44ZM345.25,7c-1.67-.19-3.33-.37-5-.52l.47-5c1.7.16,3.4.34,5.09.52ZM310.2,5.09,310,0l.77,0,4.43,0-.07,5.07c-1.41,0-2.81,0-4.22,0Z"/><path class="cls-3" d="M103.73,592.39c0,6.44-5,10.68-12.42,10.68H84.42v10h-3.6v-31h11C98.94,582.08,103.73,586.19,103.73,592.39Zm-3.56,0c0-4.2-3.43-7-8.54-7H84.42v14.37h7.21C96.74,599.74,100.17,596.82,100.17,592.39Z"/><path class="cls-3" d="M143.56,597.59a16.15,16.15,0,1,1-16.15-16.05A16,16,0,0,1,143.56,597.59Zm-3.65,0a12.51,12.51,0,1,0-12.5,12.69A12.51,12.51,0,0,0,139.91,597.59Z"/><path class="cls-3" d="M194.07,582.08l-10.58,31.26H180l-8.44-24.83-8.44,24.83h-3.51L149,582.08h3.79l8.53,25.74L170,582.08h3.11l8.62,25.69,8.58-25.69Z"/><path class="cls-3" d="M206,585.41V596h16.29v3.34H206v10.4h18.12v3.33H202.43v-31h21.72v3.33Z"/><path class="cls-3" d="M245.64,602h-7.89v11.09h-3.61v-31h11.73c7,0,11.86,3.83,11.86,9.95,0,4.92-3.15,8.39-8,9.53l9.4,11.55h-4.48Zm-7.89-3.33h8c4.83,0,8.39-2.51,8.39-6.66s-3.56-6.62-8.39-6.62h-8Z"/><path class="cls-3" d="M306.15,592.39c0,6.44-5,10.68-12.42,10.68h-6.88v10h-3.61v-31h10.95C301.36,582.08,306.15,586.19,306.15,592.39Zm-3.56,0c0-4.2-3.42-7-8.54-7h-7.2v14.37h7.2C299.17,599.74,302.59,596.82,302.59,592.39Z"/><path class="cls-3" d="M335.49,609.78v3.33H314.77v-31h3.6v27.7Z"/><path class="cls-3" d="M364.92,604.44h-16l-3.83,8.67h-3.88l14-31h3.42l14,31h-3.88Zm-1.46-3.24-6.57-14.88-6.57,14.88Z"/><path class="cls-3" d="M400.6,585.41H389.14v27.7h-3.6v-27.7H374.13v-3.33H400.6Z"/><path class="cls-3" d="M412.24,585.41v11.41H428v3.33H412.24v13h-3.61v-31h21.31v3.33Z"/><path class="cls-3" d="M468.87,597.59a16.16,16.16,0,1,1-16.15-16.05A16,16,0,0,1,468.87,597.59Zm-3.65,0a12.51,12.51,0,1,0-12.5,12.69A12.51,12.51,0,0,0,465.22,597.59Z"/><path class="cls-3" d="M490.5,602h-7.9v11.09H479v-31h11.72c7,0,11.87,3.83,11.87,9.95,0,4.92-3.15,8.39-8,9.53l9.4,11.55h-4.47Zm-7.9-3.33h8c4.84,0,8.4-2.51,8.4-6.66s-3.56-6.62-8.4-6.62h-8Z"/><path class="cls-3" d="M542.65,613.11h-3.6V590l-10.36,17.2h-2.37l-10.45-17.3.09,23.23h-3.61v-31h2.75l12.4,20.72,12.41-20.72h2.74Z"/><path class="cls-3" d="M194,647.28c0,5.16-4.16,8.63-11.14,8.63H167.24v-31h14.7c6.76,0,10.68,3.19,10.68,8.26,0,2.88-1.6,5.84-4.29,6.8A7.17,7.17,0,0,1,194,647.28Zm-19-16.1v6.48h5.79c2.92,0,4.52-1.46,4.52-3.47s-1.55-3-4.52-3Zm11.5,15.1c0-1.92-1.6-3-4.47-3h-7v6.25h6.89C185,649.52,186.46,648.11,186.46,646.28Z"/><path class="cls-3" d="M233.41,640.39A16.43,16.43,0,1,1,217,624.29,16,16,0,0,1,233.41,640.39Zm-7.81,0a8.62,8.62,0,1,0-8.62,8.9A8.61,8.61,0,0,0,225.6,640.39Z"/><path class="cls-3" d="M274.16,640.39a16.43,16.43,0,1,1-16.43-16.1A16,16,0,0,1,274.16,640.39Zm-7.81,0a8.62,8.62,0,1,0-8.62,8.9A8.61,8.61,0,0,0,266.35,640.39Z"/><path class="cls-3" d="M306.28,631.77h-9.9v24.14h-7.66V631.77h-9.91v-6.89h27.47Z"/><path class="cls-3" d="M335,643h7.94c-1,8-7.12,13.46-15.56,13.46-9.35,0-16.43-6.75-16.43-16.11s7.08-16.1,16.43-16.1c8.44,0,14.56,5.43,15.56,13.46H335a7.37,7.37,0,0,0-7.66-6.25c-5.07,0-8.59,3.74-8.59,8.89s3.52,8.9,8.59,8.9A7.37,7.37,0,0,0,335,643Z"/><path class="cls-3" d="M370.26,650.57H357.12l-2.06,5.34h-8.21l13.19-31h7.39l13.14,31h-8.21Zm-2.51-6.43-4.06-10.45-4.06,10.45Z"/><path class="cls-3" d="M421.23,655.91h-7.71V640.35L406.63,651v0h-4.29v0l-6.94-10.72.05,15.65h-7.71v-31h5.75l11,16.56,11-16.56h5.75Z"/><path class="cls-3" d="M456.23,636.24c0,7.26-5.3,11.78-13.74,11.78h-4.2v7.89h-7.71v-31h12.51C451.21,624.88,456.23,629.26,456.23,636.24Zm-7.67,0c0-2.78-2.23-4.61-5.61-4.61h-4.66v9.63H443C446.33,641.26,448.56,639.3,448.56,636.24Z"/><g class="cls-4"><path class="cls-5" d="M344.36,136v89.11H314.65V136Z"/><path class="cls-6" d="M325.79,161.94v63.12h-29.7V158.23h26A3.71,3.71,0,0,1,325.79,161.94Z"/><path class="cls-7" d="M277.52,180.5v44.56h29.71V184.22a3.72,3.72,0,0,0-3.71-3.72Z"/></g><g class="cls-8"><g class="cls-8"><g class="cls-9"><path class="cls-10" d="M192.5,239.75,160.94,275l-31.56-35.27Z"/><path class="cls-11" d="M192.5,240.13l-63.12,70.53H192.5l31.55-35.27Z"/><path class="cls-12" d="M192.5,241.61l-63.12,70.54H192.5l31.55-35.27Z"/><path class="cls-13" d="M129.38,310.29l63.12-70.54L224.05,275,192.5,310.29Z"/><path class="cls-14" d="M129.38,310.29l63.12-70.54,15.78,17.64-47.34,52.9Z"/></g></g></g><g class="cls-15"><g class="cls-15"><g class="cls-15"><g class="cls-16"><path class="cls-17" d="M434.31,321.73l-39-44.55,39-44.55,39,44.55Z"/><path class="cls-12" d="M447.31,234.49,488.14,279l-40.83,44.55-18.12-19.77a3.72,3.72,0,0,1,0-5L445,281.55a3.72,3.72,0,0,0,0-5l-15.82-17.26a3.72,3.72,0,0,1,0-5Z"/><path class="cls-11" d="M447.31,233l40.83,44.55-40.83,44.55-18.12-19.76a3.72,3.72,0,0,1,0-5L445,280a3.71,3.71,0,0,0,0-5l-15.82-17.26a3.72,3.72,0,0,1,0-5Z"/><path class="cls-18" d="M447.31,232.63l40.83,44.55-40.83,44.55L429.19,302a3.71,3.71,0,0,1,0-5L445,279.69a3.72,3.72,0,0,0,0-5l-15.82-17.26a3.71,3.71,0,0,1,0-5Z"/><path class="cls-19" d="M465,257.89a3.72,3.72,0,0,1,5.47,0l17.68,19.29-17.68,19.29a3.7,3.7,0,0,1-5.47,0l-14.23-15.53a5.54,5.54,0,0,1,0-7.52Z"/></g></g></g></g><g class="cls-20"><g class="cls-20"><g class="cls-21"><path class="cls-22" d="M345.64,412.88v44.57h18.57a3.72,3.72,0,0,1,3.72,3.71v18.57l21.19-21.19a3.71,3.71,0,0,1,2.63-1.09h20.74V416.6a3.71,3.71,0,0,0-3.71-3.72Z"/><path class="cls-23" d="M434.89,392.45,434.78,437H416.21a3.72,3.72,0,0,0-3.71,3.72v11.84a2.79,2.79,0,0,1-4.76,2L391.3,438.11a3.71,3.71,0,0,0-2.63-1.09h-17a3.71,3.71,0,0,1-3.71-3.71V392.45Z"/><path class="cls-24" d="M434.89,391l-.11,44.57H416.21a3.71,3.71,0,0,0-3.71,3.71v11.85a2.79,2.79,0,0,1-4.76,2L391.3,436.61a3.71,3.71,0,0,0-2.63-1.09h-17a3.71,3.71,0,0,1-3.71-3.72V391Z"/><path class="cls-25" d="M434.89,390.6l-.11,44.57H416.21a3.71,3.71,0,0,0-3.71,3.71v11.85a2.79,2.79,0,0,1-4.76,2L391.3,436.25a3.74,3.74,0,0,0-2.63-1.08h-17a3.72,3.72,0,0,1-3.71-3.72V390.6Z"/><rect class="cls-26" x="367.93" y="390.6" width="66.85" height="14.86"/><rect class="cls-27" x="367.93" y="405.45" width="66.85" height="14.86"/></g></g></g><g class="cls-28"><g class="cls-29"><path class="cls-30" d="M191.58,448.59l47.35-35.52,36,27-47.35,35.52Z"/><path class="cls-31" d="M204.84,438.64l34.09-25.57,36,27-31.31,23.48a4.64,4.64,0,0,1-5.57,0Z"/><path class="cls-11" d="M180.22,420.55,227.57,385l36,27L219,445.45a4.64,4.64,0,0,1-5.57,0Z"/><path class="cls-12" d="M180.22,422l47.35-35.51,36,27L219,446.93a4.64,4.64,0,0,1-5.57,0Z"/><path class="cls-32" d="M180.22,420.17l47.35-35.51,36,27L219,445.08a4.67,4.67,0,0,1-5.57,0Z"/><path class="cls-33" d="M180.22,420.17l31.3-23.48a4.65,4.65,0,0,1,5.58,0l33.2,24.9L219,445.08a4.67,4.67,0,0,1-5.57,0Z"/></g></g><path class="cls-34" d="M310.94,87.34a93.26,93.26,0,0,0-93.17,93.16,94.3,94.3,0,0,0,.57,10.28c.22,2,.52,4.05.87,6,2,1,3.91,2.12,5.79,3.29h0c0-.06,0-.12,0-.17l0-.17c0-.11,0-.22-.07-.33a.08.08,0,0,1,0,0c-.19-.85-.36-1.72-.53-2.58-.09-.5-.19-1-.28-1.51l0-.22a2.56,2.56,0,0,0,0-.27l0-.21c-.06-.34-.1-.69-.16-1.05s-.1-.69-.15-1-.09-.69-.13-1.05c-.08-.69-.17-1.39-.24-2.09-.13-1.3-.23-2.61-.31-3.93,0-.19,0-.38,0-.58a2.44,2.44,0,0,1,0-.27,1,1,0,0,1,0-.24c0-.52,0-1.06,0-1.59,0-.75,0-1.51,0-2.28a88.14,88.14,0,0,1,176.28,0c0,.77,0,1.53,0,2.28q0,.85-.06,1.71a1.15,1.15,0,0,1,0,.18c0,.29,0,.58,0,.86v.07c0,.35-.05.69-.07,1.05,0,.07,0,.14,0,.21,0,.47-.07.92-.11,1.38,0,.08,0,.16,0,.24l-.1,1.16-.21,1.81c-.08.6-.15,1.19-.25,1.77s-.18,1.18-.27,1.77-.17,1-.25,1.47-.23,1.21-.35,1.82-.29,1.3-.43,1.95c-.11.44-.21.87-.31,1.29,1.89-1.14,3.84-2.2,5.85-3.2.4-2,.71-4,1-6a95.73,95.73,0,0,0,.73-11.8A93.25,93.25,0,0,0,310.94,87.34Z"/><path class="cls-34" d="M350.21,259.4l-1.06.52-.59.28-1.84.85-.17.08-1.11.49-.9.36c-.43.2-.87.37-1.31.54-.66.26-1.33.52-2,.76l-1.55.56-.59.2c-.65.22-1.31.43-2,.63s-1.2.37-1.81.54l-.55.16c-.53.15-1,.3-1.57.42a4.17,4.17,0,0,1-.56.14c-.61.16-1.21.31-1.81.44s-1.42.33-2.14.47-1.16.24-1.74.34l-1.38.24c-.51.09-1,.18-1.56.25l-.24,0-.14,0-1.16.16-.17,0-.65.08-1.11.13-.88.09h-.14c-.55.07-1.1.1-1.66.15h-.31l-1.52.1h-.16c-.31,0-.61,0-.91.05h-.33l-1.41,0c-.76,0-1.52,0-2.28,0s-1.5,0-2.24,0l-1,0-1,0c-.32,0-.64,0-.95-.06h0c-.24,0-.47,0-.71-.05l-.84-.05c-.23,0-.44,0-.67-.06h-.1c-.32,0-.64-.05-1-.08-.68-.06-1.37-.14-2.05-.22l-.36,0c-.84-.1-1.67-.22-2.51-.34,0,0,0,0-.08,0-.53-.07-1.06-.17-1.6-.27-.33-.06-.67-.11-1-.18l-.21,0-1.22-.24-.56-.13a1.5,1.5,0,0,1-.29-.06c-.28-.05-.58-.11-.86-.19l-.22,0-1.39-.32-.55-.14c-.81-.2-1.61-.41-2.4-.64s-1.68-.49-2.52-.75l-1.31-.41-1.16-.4c-.68-.23-1.37-.48-2-.74h0l-.81-.3-1.63-.65-.47-.2c-.58-.23-1.17-.48-1.74-.74l-.23-.1c-1-.45-2.05-.93-3.05-1.43a1.4,1.4,0,0,1-.17-.09l-.85-.42-.85-.44-1.47-.79c-.5-.26-1-.54-1.47-.82l-.7-.4-.26-.15c-.32-.19-.65-.38-1-.58l-1-.59c.51,2.17.92,4.36,1.25,6.58,1.78,1,3.6,1.93,5.45,2.8a93.15,93.15,0,0,0,78.17.66c.26-2,.59-4,1-6.06A.6.6,0,0,1,350.21,259.4Z"/><path class="cls-35" d="M271.16,264.74c-.23-2-.52-4-.88-6.05a93.45,93.45,0,0,0-46.51-65.13q-2.64-1.47-5.43-2.78a91.87,91.87,0,0,0-11-4.35,93.15,93.15,0,1,0-57.57,177.18,91.78,91.78,0,0,0,9.91,2.63c2,.42,4,.78,6,1.05q2.39-2.35,4.91-4.5c-2.19-.19-4.4-.47-6.61-.85a86.67,86.67,0,0,1-12.67-3.11A88.12,88.12,0,1,1,205.8,191.21a86.67,86.67,0,0,1,13.41,5.61c2,1,3.91,2.12,5.79,3.29h0a88.32,88.32,0,0,1,39.45,55.25c.51,2.17.92,4.36,1.25,6.58a88.05,88.05,0,0,1-25.3,75.88c-1.61,1.57-3.26,3.07-5,4.5q3.33.3,6.63.85c1.49-1.38,2.93-2.81,4.34-4.3a93.16,93.16,0,0,0,24.75-74.13Z"/><path class="cls-36" d="M530.34,248.4A93.26,93.26,0,0,0,413,188.58a89.83,89.83,0,0,0-9.59,3.72q-2.81,1.24-5.49,2.69a93.35,93.35,0,0,0-47.56,64.35c-.4,2-.73,4-1,6.06a93.05,93.05,0,0,0,23.54,74.49c1.37,1.51,2.79,3,4.27,4.38l.37,0,1.29-.18,1.24-.15.94-.1,1.14-.11,1.65-.13a0,0,0,0,1,0,0c-.86-.75-1.72-1.52-2.55-2.31s-1.56-1.5-2.31-2.26l-.13-.14c-.54-.55-1.06-1.1-1.59-1.66s-1.12-1.22-1.67-1.84l-.82-.95-.81-.95c-.53-.64-1.05-1.29-1.57-1.95s-.94-1.22-1.41-1.84l-1.07-1.48c-.35-.5-.7-1-1-1.52-.69-1-1.36-2-2-3.08-.2-.33-.41-.66-.6-1-1-1.73-2-3.49-2.95-5.31-.19-.38-.38-.75-.55-1.13q-.48-1-.93-1.95c-.39-.83-.77-1.67-1.12-2.52,0,0,0,0,0,0-.3-.68-.58-1.35-.86-2l-.06-.19c-.3-.75-.58-1.5-.85-2.25-.05-.15-.1-.28-.14-.42-.28-.76-.54-1.53-.79-2.29s-.47-1.45-.68-2.19-.46-1.57-.66-2.37c-.14-.49-.26-1-.39-1.48-.23-.93-.44-1.87-.65-2.8,0-.14-.05-.26-.08-.4-.11-.52-.21-1-.32-1.57s-.23-1.32-.35-2-.21-1.32-.31-2-.18-1.31-.26-2c-.1-.86-.19-1.72-.27-2.59V285c-.08-.86-.15-1.72-.19-2.59-.05-.68-.08-1.38-.11-2.07,0-.31,0-.61,0-.92,0-.73,0-1.47,0-2.2v0c0-.87,0-1.73,0-2.59s.07-1.75.12-2.61c0-.41,0-.81.08-1.22v0c0-.31.05-.63.08-.94,0-.11,0-.21,0-.33,0-.47.09-.95.15-1.43s.12-1.2.2-1.81.16-1.2.25-1.81.18-1.19.29-1.79.14-.89.22-1.32c.16-.88.33-1.76.53-2.62s.37-1.67.58-2.5c0,0,0-.07,0-.11h0c.12-.49.25-1,.38-1.46s.21-.81.34-1.22c.55-2,1.18-4,1.87-5.89.17-.45.33-.9.49-1.35a.42.42,0,0,0,.06-.14.54.54,0,0,1,.05-.11c.18-.49.37-1,.56-1.46.13-.32.25-.62.39-.93s.35-.87.54-1.3l.08-.16c.19-.45.39-.91.6-1.36s.31-.66.45-1c.29-.58.56-1.17.86-1.75.07-.15.13-.29.21-.44l.83-1.6c.32-.6.65-1.2,1-1.8.08-.15.17-.29.25-.45l1-1.7c.31-.52.63-1,.95-1.55.48-.77,1-1.53,1.48-2.28a.42.42,0,0,1,.08-.12l.89-1.32.94-1.32.19-.26c.49-.67,1-1.33,1.49-2s.88-1.12,1.33-1.66.89-1.09,1.36-1.63.85-1,1.29-1.49l.19-.2c.45-.52.92-1,1.4-1.52a0,0,0,0,1,0,0c.49-.53,1-1.06,1.51-1.57.35-.36.72-.72,1.08-1.07l.87-.84,1.2-1.12c.49-.45,1-.9,1.51-1.35s.87-.75,1.32-1.12.85-.7,1.28-1c.88-.71,1.76-1.39,2.66-2.06.52-.39,1-.77,1.55-1.13,1.89-1.34,3.84-2.62,5.84-3.81s3.84-2.2,5.85-3.2c.47-.24,1-.48,1.45-.7s1-.47,1.47-.69l.76-.34,1.62-.69,1.48-.61c1.19-.46,2.39-.92,3.61-1.34.56-.2,1.14-.4,1.72-.58A88.13,88.13,0,1,1,469,361l-1.75.55c-1,.3-2,.58-3,.85l-2,.51c-1,.24-2,.46-3,.66h-.07l-1.36.27c-1,.18-1.94.34-2.91.49h0l-.46.07-1.2.16c-.53.08-1.07.14-1.61.2-1.12.13-2.23.23-3.35.31,0,0,.06.06.09.09.39.32.76.66,1.15,1l1.22,1.13c.34.32.67.63,1,.95l.45.45c.32.31.64.63.95,1,2-.26,4-.57,6-1a94.58,94.58,0,0,0,11.41-2.92A93.25,93.25,0,0,0,530.34,248.4Z"/><path class="cls-37" d="M465.6,376.68a92.09,92.09,0,0,0-6.49-8c-1.37-1.51-2.78-3-4.24-4.36h0a93.4,93.4,0,0,0-76-25.38c-2,.25-4,.55-6,.93a93.21,93.21,0,0,0-63.61,45.4c-1,1.77-2,3.57-2.84,5.4q1.5,3,2.74,6.1s0,0,0,0c.27-.66.57-1.32.86-2l.48-1c.24-.5.48-1,.73-1.5s.49-1,.76-1.49h0c.34-.66.69-1.31,1.05-2l.28-.51c.29-.5.57-1,.87-1.5.12-.23.26-.44.39-.67.37-.62.74-1.23,1.13-1.83s.9-1.4,1.37-2.1.88-1.29,1.34-1.94a4.06,4.06,0,0,1,.26-.36c.38-.53.77-1.07,1.18-1.6q.18-.25.39-.51c.4-.53.81-1,1.23-1.57a2.88,2.88,0,0,1,.27-.34c.46-.56.91-1.12,1.38-1.66a.94.94,0,0,1,.12-.14c.53-.62,1.06-1.22,1.61-1.82s1.13-1.23,1.71-1.83a1.54,1.54,0,0,1,.17-.19c.54-.56,1.1-1.12,1.66-1.67a86.68,86.68,0,0,1,10-8.43c.62-.46,1.25-.9,1.88-1.33,1.48-1,3-2,4.5-2.9l.86-.51c1.12-.65,2.24-1.28,3.37-1.88.47-.25.92-.49,1.39-.72,1.19-.6,2.39-1.18,3.59-1.72.41-.19.81-.36,1.22-.53.74-.33,1.48-.64,2.23-.93s1.42-.56,2.13-.82,1.45-.53,2.16-.78c.95-.32,1.89-.62,2.86-.91q1-.31,2.07-.6c.25-.08.51-.15.77-.21.63-.18,1.25-.34,1.89-.49l.31-.07c.52-.13,1.05-.24,1.58-.36.14,0,.27-.07.41-.09.52-.11,1.05-.23,1.58-.32l.18,0c.53-.12,1.06-.21,1.59-.3.72-.12,1.44-.25,2.17-.35l.37,0,1.29-.18,1.24-.15.94-.1,1.14-.11,1.65-.13h0l1.6-.1a84.35,84.35,0,0,1,8.71,0c.59,0,1.2.05,1.79.09l.5,0c1.19.09,2.38.2,3.56.33h0c.41.05.82.09,1.22.15s.72.08,1.06.14.92.12,1.38.2c.64.09,1.28.19,1.92.31s1.28.24,1.92.37c.82.15,1.64.33,2.46.53.41.08.83.18,1.24.29a84.09,84.09,0,0,1,8.35,2.47c.35.12.7.24,1.05.38.54.19,1.09.4,1.64.61,1.45.56,2.9,1.16,4.33,1.82.57.25,1.14.51,1.7.79s1.19.57,1.78.86l1.86,1c.69.38,1.39.75,2.08,1.15.53.31,1.08.61,1.6.94l1.23.74c1.2.74,2.37,1.52,3.53,2.32l1.54,1.08.13.1c.47.34.94.68,1.39,1,1.66,1.25,3.29,2.57,4.87,4,0,0,.06.06.09.09.39.32.76.66,1.15,1l1.22,1.13c.34.32.67.63,1,.95l.45.45c.32.31.64.63.95,1l1.28,1.33.74.79c1.56,1.71,3.08,3.48,4.52,5.34.26.33.52.67.77,1,.39.49.77,1,1.13,1.5a88.17,88.17,0,1,1-150.17,91.29h0c-.23-.44-.44-.9-.66-1.34q-.76-1.57-1.44-3.18c-.23-.51-.45-1-.65-1.53q-1.31,3-2.86,6c.85,1.84,1.78,3.66,2.77,5.44A93.19,93.19,0,1,0,465.6,376.68Z"/><path class="cls-38" d="M309.26,385.29a93.06,93.06,0,0,0-62.85-46.42c-2-.43-4-.77-6-1.05-1.61,1.57-3.26,3.07-5,4.5q3.33.3,6.63.85a88.06,88.06,0,0,1,64.35,47.52q1.5,3,2.74,6.1s0,0,0,0c.27-.66.57-1.32.86-2l.48-1c.24-.5.48-1,.73-1.5s.49-1,.76-1.49h0C311.17,388.9,310.25,387.09,309.26,385.29Zm0,0a93.06,93.06,0,0,0-62.85-46.42c-2-.43-4-.77-6-1.05-1.61,1.57-3.26,3.07-5,4.5q3.33.3,6.63.85a88.06,88.06,0,0,1,64.35,47.52q1.5,3,2.74,6.1s0,0,0,0c.27-.66.57-1.32.86-2l.48-1c.24-.5.48-1,.73-1.5s.49-1,.76-1.49h0C311.17,388.9,310.25,387.09,309.26,385.29Zm0,0a93.06,93.06,0,0,0-62.85-46.42c-1.41,1.49-2.85,2.92-4.34,4.3a88.06,88.06,0,0,1,64.35,47.52q1.5,3,2.74,6.1s0,0,0,0c.27-.66.57-1.32.86-2l.48-1c.24-.5.48-1,.73-1.5s.49-1,.76-1.49h0C311.17,388.9,310.25,387.09,309.26,385.29Zm2.76,5.47h0c-.85-1.85-1.77-3.66-2.76-5.46a93.06,93.06,0,0,0-62.85-46.42c-2-.43-4-.77-6-1.05A93.48,93.48,0,0,0,164,361.94c-1.48,1.37-2.92,2.81-4.32,4.3a91.41,91.41,0,0,0-7.53,9.1A93.19,93.19,0,0,0,303,484.89a91.73,91.73,0,0,0,5.56-8.59q1.51-2.66,2.84-5.38h0A93.39,93.39,0,0,0,312,390.76Zm-3.41,74.09h0q-1.31,3-2.86,6a88.16,88.16,0,1,1-140-103.57q2.39-2.35,4.91-4.5a88.44,88.44,0,0,1,64.81-20.47q3.33.3,6.63.85a88.06,88.06,0,0,1,64.35,47.52q1.5,3,2.74,6.1A88.27,88.27,0,0,1,308.61,464.85Zm.65-79.56a93.06,93.06,0,0,0-62.85-46.42c-2-.43-4-.77-6-1.05-1.61,1.57-3.26,3.07-5,4.5q3.33.3,6.63.85a88.06,88.06,0,0,1,64.35,47.52q1.5,3,2.74,6.1s0,0,0,0c.27-.66.57-1.32.86-2l.48-1c.24-.5.48-1,.73-1.5s.49-1,.76-1.49h0C311.17,388.9,310.25,387.09,309.26,385.29Zm0,0a93.06,93.06,0,0,0-62.85-46.42c-2-.43-4-.77-6-1.05-1.61,1.57-3.26,3.07-5,4.5q3.33.3,6.63.85a88.06,88.06,0,0,1,64.35,47.52q1.5,3,2.74,6.1s0,0,0,0c.27-.66.57-1.32.86-2l.48-1c.24-.5.48-1,.73-1.5s.49-1,.76-1.49h0C311.17,388.9,310.25,387.09,309.26,385.29Zm-26.91-30.56a92.38,92.38,0,0,0-35.94-15.86c-1.41,1.49-2.85,2.92-4.34,4.3a88.06,88.06,0,0,1,64.35,47.52c.88-1.83,1.82-3.63,2.84-5.4A92.61,92.61,0,0,0,282.35,354.73Z"/></g></g></svg>